<?xml version="1.0" encoding="UTF-8" standalone="no"?>
<svg width="48px" height="48px" viewBox="0 0 137 137" version="1.1" xmlns="http://www.w3.org/2000/svg" xmlns:xlink="http://www.w3.org/1999/xlink" xml:space="preserve" xmlns:serif="http://www.serif.com/" style="fill-rule:evenodd;clip-rule:evenodd;stroke-linejoin:round;stroke-miterlimit:2;">
<path fill="#202020" d="M114.958,115.597L106.09,115.597L106.09,106.235C106.09,96.094 99.998,86.58 89.797,80.782C85.076,78.102 82.257,73.818 82.257,69.321L82.257,66.741C82.257,62.245 85.076,57.959 89.799,55.277C100,49.481 106.09,39.967 106.09,29.827L106.09,20.464L114.958,20.464C116.969,20.464 118.812,19.578 120.018,18.033C121.153,16.579 121.551,14.734 121.11,12.97L120.061,8.762C118.775,3.604 113.975,0 108.388,0L27.674,0C22.089,0 17.289,3.604 16.001,8.764L14.952,12.97C14.511,14.735 14.915,16.608 16.044,18.035C17.248,19.579 19.095,20.466 21.104,20.466L29.972,20.466L29.972,29.828C29.972,39.969 36.064,49.481 46.265,55.279C50.987,57.963 53.805,62.247 53.805,66.742L53.805,69.322C53.805,73.818 50.987,78.102 46.265,80.784C36.064,86.582 29.972,96.098 29.972,106.236L29.972,115.599L21.104,115.599C19.093,115.599 17.248,116.485 16.044,118.03C14.917,119.457 14.513,121.329 14.952,123.094L16.001,127.301C17.289,132.459 22.089,136.063 27.674,136.063L108.388,136.063C113.974,136.063 118.773,132.459 120.062,127.299L121.11,123.093C121.552,121.328 121.148,119.454 120.018,118.028C118.812,116.484 116.969,115.597 114.958,115.597ZM101.376,115.597L93.493,115.597L93.493,112.204C93.493,106.141 89.759,100.542 83.251,96.841L83.065,96.736C73.763,91.384 62.28,91.388 52.982,96.746L52.8,96.85C46.299,100.544 42.573,106.141 42.573,112.204L42.573,115.597L34.693,115.597L34.693,106.235C34.693,97.814 39.891,89.832 48.597,84.886C54.813,81.354 58.526,75.535 58.526,69.321L58.526,66.741C58.526,60.528 54.815,54.708 48.597,51.175C39.892,46.227 34.693,38.247 34.693,29.827L34.693,20.464L101.376,20.464L101.376,29.827C101.376,38.246 96.178,46.227 87.47,51.175C81.256,54.708 77.543,60.524 77.543,66.741L77.543,69.321C77.543,75.534 81.252,81.354 87.469,84.886C96.177,89.834 101.376,97.814 101.376,106.235L101.376,115.597ZM68.035,78.915C67.415,78.904 66.815,79.138 66.365,79.565C65.456,80.487 65.457,81.989 66.367,82.91C66.911,83.453 67.658,83.693 68.513,83.555C68.656,83.511 68.807,83.471 68.959,83.414C69.061,83.361 69.214,83.283 69.369,83.191C69.447,83.126 69.578,83.026 69.694,82.91C70.141,82.461 70.398,81.852 70.398,81.237C70.398,80.621 70.139,80.012 69.694,79.566C69.287,79.148 68.734,78.947 68.035,78.915ZM68.032,63.159C69.117,63.159 70.059,62.424 70.319,61.371C71.978,54.733 76.575,48.983 83.266,45.181C88.673,42.108 92.195,37.662 93.187,32.667C93.324,31.975 93.143,31.257 92.695,30.713C92.248,30.167 91.578,29.85 90.872,29.851L45.187,29.851C43.895,29.851 42.832,30.914 42.832,32.206C42.832,32.361 42.847,32.515 42.877,32.667C43.867,37.664 47.391,42.108 52.798,45.181C59.489,48.984 64.086,54.731 65.743,61.37C66.002,62.418 66.952,63.16 68.032,63.159Z"/>
</svg>