<?xml version="1.0" encoding="UTF-8" standalone="no"?>
<svg width="48px" height="48px" viewBox="0 0 48 48" version="1.1" xmlns="http://www.w3.org/2000/svg" xmlns:xlink="http://www.w3.org/1999/xlink" xml:space="preserve" xmlns:serif="http://www.serif.com/" style="fill-rule:evenodd;clip-rule:evenodd;stroke-linejoin:round;stroke-miterlimit:2;">
<path d="M9.471,18.941C9.739,19.021 9.957,19.216 10.069,19.472C10.685,20.882 12.741,25.591 13.489,27.305C13.665,27.708 13.992,28.028 14.399,28.196C17.641,29.536 32.326,35.602 35.935,37.092C36.113,37.166 36.316,37.146 36.475,37.037C36.634,36.929 36.728,36.748 36.725,36.556C36.702,34.968 36.652,31.613 36.627,29.953C36.619,29.391 36.211,28.915 35.658,28.819C33.054,28.374 25.887,27.145 23.787,26.785C23.448,26.727 23.201,26.434 23.201,26.091L23.201,16.548C23.201,16.37 23.281,16.202 23.419,16.089C23.558,15.977 23.738,15.932 23.913,15.968C27.27,16.656 41.524,19.577 45.386,20.369C45.939,20.482 46.322,20.989 46.279,21.553C45.964,25.683 44.754,41.57 44.434,45.767C44.39,46.344 43.911,46.792 43.331,46.797C37.405,46.849 7.613,47.112 2.519,47.155C2.323,47.158 2.134,47.081 1.998,46.942C1.858,46.805 1.781,46.617 1.783,46.421C1.817,42.263 1.984,21.881 2.019,17.519C2.021,17.325 2.114,17.143 2.27,17.028C2.425,16.913 2.628,16.878 2.813,16.934C4.458,17.429 8.21,18.561 9.471,18.941ZM21.133,1.323C21.131,1.054 20.912,0.837 20.644,0.837L14.53,0.837C14.032,0.837 13.624,1.229 13.602,1.727C13.482,4.603 13.109,13.571 13.03,15.467C13.021,15.672 13.161,15.854 13.361,15.9C14.59,16.179 18.781,17.132 20.505,17.523C20.687,17.565 20.878,17.521 21.023,17.404C21.168,17.287 21.252,17.111 21.25,16.924C21.228,14.009 21.151,3.689 21.133,1.323ZM42.878,0.837C43.069,0.837 43.253,0.914 43.387,1.051C43.521,1.188 43.594,1.374 43.59,1.565C43.53,4.243 43.324,13.551 43.255,16.668C43.249,16.921 43.131,17.158 42.932,17.315C42.734,17.472 42.476,17.532 42.228,17.479C40.483,17.105 36.922,16.342 35.313,15.997C34.837,15.895 34.503,15.467 34.519,14.981C34.608,12.307 34.885,4.029 34.967,1.547C34.981,1.151 35.305,0.837 35.701,0.837L42.878,0.837ZM10.39,1.247C10.39,1.138 10.348,1.034 10.272,0.957C10.196,0.88 10.092,0.837 9.983,0.837L4.133,0.837C3.506,0.837 2.98,1.315 2.92,1.94C2.672,4.509 2.064,10.84 1.852,13.048C1.809,13.492 2.101,13.899 2.536,14.001C4.149,14.381 7.911,15.266 9.518,15.645C9.7,15.687 9.892,15.645 10.039,15.529C10.185,15.414 10.272,15.238 10.273,15.051C10.297,12.338 10.374,3.284 10.39,1.247ZM32.236,1.776C32.238,1.528 32.141,1.289 31.966,1.113C31.791,0.936 31.553,0.837 31.305,0.837L25.917,0.837C25.366,0.837 24.91,1.262 24.871,1.811C24.701,4.21 24.266,10.361 24.116,12.474C24.087,12.888 24.373,13.257 24.78,13.333C26.252,13.607 29.618,14.233 31.228,14.532C31.449,14.573 31.677,14.515 31.85,14.372C32.024,14.229 32.125,14.017 32.127,13.792C32.15,11.292 32.213,4.315 32.236,1.776Z" style="fill:rgb(32,32,32);fill-rule:nonzero;"/>
</svg>